<?xml version="1.0" encoding="UTF-8" standalone="no"?>
<!-- Generator: Adobe Illustrator 12.0.1, SVG Export Plug-In . SVG Version: 6.00 Build 51448)  -->
<svg id="Layer_1" xmlns:rdf="http://www.w3.org/1999/02/22-rdf-syntax-ns#" style="enable-background:new 0 0 112.294 153.685" xmlns="http://www.w3.org/2000/svg" xml:space="preserve" height="153.68" viewBox="0 0 112.294 153.685" width="112.29" version="1.1" xmlns:cc="http://creativecommons.org/ns#" xmlns:dc="http://purl.org/dc/elements/1.1/"><metadata id="metadata50"><rdf:RDF><cc:Work rdf:about=""><dc:format>image/svg+xml</dc:format><dc:type rdf:resource="http://purl.org/dc/dcmitype/StillImage"/></cc:Work></rdf:RDF></metadata>
<path id="path5" fill="#231f20" d="m62.494 74.318v-16.329h2.222l8.554 12.815v-12.815h2.078v16.329h-2.223l-8.553-12.815v12.815h-2.078z"/><path id="path7" fill="#231f20" d="m79.063 74.318v-16.329h2.167v6.71h8.446v-6.71h2.167v16.329h-2.167v-7.689h-8.446v7.689h-2.167z"/>
<path id="path11" fill="#231f20" d="m29.861 130.89v-16.33h2.223l8.554 12.82v-12.82h2.079v16.33h-2.223l-8.554-12.82v12.82h-2.079z"/>
<path id="path15" fill="#231f20" d="m29.965 149.84v-16.33h2.167v6.71h8.446v-6.71h2.167v16.33h-2.167v-7.69h-8.446v7.69h-2.167z"/>
<path id="polygon17" fill="#231f20" d="m69.736 103.48l-1.616-0.95v-26.122h1.616v27.072z"/>
<path id="polygon19" fill="#231f20" d="m46.46 116.97l-0.808-1.37 22.468-13.07 1.616 0.95-23.276 13.49z"/>
<path id="polygon21" fill="#231f20" d="m2.8074 103.48l1.615-0.95 22.468 13.02-0.808 1.42-23.275-13.49z"/>
<path id="polygon23" fill="#231f20" d="m2.8074 64.864l1.615 0.95v36.716l-1.615 0.95v-38.616z"/>
<path id="rect25" fill="#231f20" d="m8.4599 68.618h1.6151v31.16h-1.6151v-31.16z"/>
<path id="polygon27" fill="#231f20" d="m36.295 45.58v1.853l-31.873 18.381-1.6146-0.95 33.488-19.284z"/>
<path id="polygon29" fill="#231f20" d="m36.295 47.433v-1.853l23.227 13.394-0.807 1.378-22.42-12.919z"/>
<path id="path33" fill="#231f20" d="m28.511 12.505c0-2.7102 0.727-4.8306 2.183-6.3629 1.455-1.5333 3.334-2.3 5.636-2.3 1.508 0 2.866 0.3601 4.076 1.0802 1.211 0.721 2.133 1.7242 2.769 3.0124 0.635 1.2882 0.952 2.7493 0.952 4.3813 0 1.656-0.335 3.137-1.003 4.443-0.667 1.307-1.615 2.296-2.84 2.968-1.226 0.672-2.547 1.008-3.965 1.008-1.537 0-2.911-0.371-4.121-1.113-1.211-0.742-2.128-1.757-2.752-3.04-0.624-1.284-0.935-2.643-0.935-4.077zm2.226 0.028c0 1.966 0.53 3.516 1.588 4.648s2.386 1.698 3.982 1.698c1.627 0 2.965-0.572 4.017-1.715 1.051-1.143 1.576-2.765 1.576-4.865 0-1.328-0.224-2.488-0.674-3.4789-0.449-0.9908-1.106-1.7594-1.972-2.3047-0.865-0.5453-1.836-0.8179-2.913-0.8179-1.529 0-2.846 0.5253-3.949 1.5751-1.103 1.0497-1.655 2.8044-1.655 5.2604z"/>
<path id="rect35" fill="#231f20" d="m32.875 22.923h1.615v25.079h-1.615v-25.079z"/>
<path id="rect37" fill="#231f20" d="m38.147 22.923h1.615v25.079h-1.615v-25.079z"/>
<path id="path41" fill="#231f20" d="m93.872 122.94c0-2.71 0.727-4.83 2.182-6.36 1.456-1.53 3.334-2.3 5.636-2.3 1.51 0 2.87 0.36 4.08 1.08s2.13 1.72 2.76 3.01c0.64 1.29 0.96 2.75 0.96 4.38 0 1.66-0.34 3.14-1.01 4.45-0.66 1.3-1.61 2.29-2.84 2.96-1.22 0.68-2.54 1.01-3.96 1.01-1.54 0-2.911-0.37-4.122-1.11s-2.128-1.76-2.751-3.04-0.935-2.64-0.935-4.08zm2.226 0.03c0 1.97 0.529 3.52 1.587 4.65 1.059 1.13 2.385 1.7 3.985 1.7 1.62 0 2.96-0.58 4.01-1.72s1.58-2.76 1.58-4.86c0-1.33-0.22-2.49-0.67-3.48s-1.11-1.76-1.97-2.31c-0.87-0.54-1.84-0.82-2.92-0.82-1.53 0-2.844 0.53-3.948 1.58-1.103 1.05-1.654 2.8-1.654 5.26z"/>
<path id="polygon43" fill="#231f20" d="m94.911 113.79l-0.809 1.42-25.554-14.77 0.807-1.376 25.556 14.726z"/>
<path id="polygon45" fill="#231f20" d="m92.061 118.73l-0.809 1.38-25.554-14.73 0.807-1.42 25.556 14.77z"/>
</svg>
